<?xml version="1.0" ?>
<!DOCTYPE svg  PUBLIC '-//W3C//DTD SVG 1.1//EN'  'http://www.w3.org/Graphics/SVG/1.1/DTD/svg11.dtd'>
<!-- Uploaded to: SVG Repo, www.svgrepo.com, Generator: SVG Repo Mixer Tools -->
<svg fill="#000000" width="800px" height="800px" viewBox="0 0 64 64" style="fill-rule:evenodd;clip-rule:evenodd;stroke-linejoin:round;stroke-miterlimit:2;" version="1.1" xml:space="preserve" xmlns="http://www.w3.org/2000/svg" xmlns:serif="http://www.serif.com/" xmlns:xlink="http://www.w3.org/1999/xlink">
<g id="Expanded">
<path d="M7.148,6l0,52c0,1.657 1.343,3 3,3c7.774,0 35.93,0 43.704,0c1.657,0 3,-1.343 3,-3l-0,-52c-0,-1.657 -1.343,-3 -3,-3c-7.774,0 -35.93,0 -43.704,0c-1.657,-0 -3,1.343 -3,3Zm47.704,50l-0,2c-0,0.552 -0.448,1 -1,1l-43.704,0c-0.552,0 -1,-0.448 -1,-1l0,-2l45.704,0Zm-45.704,-36l0,34l45.704,0l-0,-34l-45.704,0Zm37.312,21l2.54,0c0.552,0 1,-0.448 1,-1l0,-6c0,-0.552 -0.448,-1 -1,-1l-2.54,0c-1.753,-6.339 -7.566,-11 -14.46,-11c-8.279,0 -15,6.721 -15,15c0,8.279 6.721,15 15,15c6.894,-0 12.707,-4.661 14.46,-11Zm-2.088,-8c-1.688,-5.22 -6.592,-9 -12.372,-9c-7.175,0 -13,5.825 -13,13c0,7.175 5.825,13 13,13c5.78,0 10.684,-3.78 12.372,-9l-3.139,-0c-1.548,3.565 -5.101,6.061 -9.233,6.061c-5.553,0 -10.061,-4.508 -10.061,-10.061c-0,-5.553 4.508,-10.061 10.061,-10.061c4.132,-0 7.685,2.496 9.233,6.061l3.139,0Zm-5.33,0.076c-1.379,-2.467 -4.017,-4.137 -7.042,-4.137c-4.449,-0 -8.061,3.612 -8.061,8.061c-0,4.449 3.612,8.061 8.061,8.061c3.025,0 5.663,-1.67 7.042,-4.137c-1.834,-0.363 -3.22,-1.983 -3.22,-3.924c0,-1.941 1.386,-3.561 3.22,-3.924Zm8.958,1.924l-8.178,0c-1.103,0 -2,0.896 -2,2c0,1.104 0.897,2 2,2l8.178,-0c0,-0 0,-4 0,-4Zm6.852,-17l-45.704,0l0,-12c0,-0.552 0.448,-1 1,-1l43.704,-0c0.552,-0 1,0.448 1,1l-0,12Zm-26.852,-10c0,-0.552 -0.448,-1 -1,-1l-15,0c-0.552,0 -1,0.448 -1,1l-0,7c-0,0.552 0.448,1 1,1l15,0c0.552,0 1,-0.448 1,-1l-0,-7Zm21.5,0.5c-1.932,-0 -3.5,1.568 -3.5,3.5c0,1.932 1.568,3.5 3.5,3.5c1.932,-0 3.5,-1.568 3.5,-3.5c0,-1.932 -1.568,-3.5 -3.5,-3.5Zm-9,-0c-1.932,-0 -3.5,1.568 -3.5,3.5c0,1.932 1.568,3.5 3.5,3.5c1.932,-0 3.5,-1.568 3.5,-3.5c0,-1.932 -1.568,-3.5 -3.5,-3.5Zm-14.5,0.5l0,5c-0,0 -13,0 -13,0c0,-0 0,-5 0,-5l13,0Zm23.5,1.5c0.828,-0 1.5,0.672 1.5,1.5c0,0.828 -0.672,1.5 -1.5,1.5c-0.828,-0 -1.5,-0.672 -1.5,-1.5c0,-0.828 0.672,-1.5 1.5,-1.5Zm-9,-0c0.828,-0 1.5,0.672 1.5,1.5c0,0.828 -0.672,1.5 -1.5,1.5c-0.828,-0 -1.5,-0.672 -1.5,-1.5c0,-0.828 0.672,-1.5 1.5,-1.5Z"/>
</g>
</svg>