<?xml version="1.0" encoding="iso-8859-1"?>
<!-- Uploaded to: SVG Repo, www.svgrepo.com, Generator: SVG Repo Mixer Tools -->
<svg fill="#000000" height="800px" width="800px" version="1.1" id="Capa_1" xmlns="http://www.w3.org/2000/svg" xmlns:xlink="http://www.w3.org/1999/xlink" 
	 viewBox="0 0 510.971 510.971" xml:space="preserve">
<g>
	<path d="M510.106,263.014c-3.488-19.859-18.232-36.663-37.563-42.809c-8.19-2.604-16.553-3.32-24.854-2.128
		c-0.349,0.051-0.49-0.285-0.532-0.431c-13.063-45.296-41.843-84.505-81.179-110.729c0.66-2.186,1.007-4.486,1.007-6.847V61.967
		c0-7.386-3.366-14.193-9.236-18.676c-5.868-4.483-13.321-5.939-20.448-3.997l-66.821,18.224H240.49l-66.821-18.224
		c-7.126-1.943-14.579-0.486-20.448,3.997c-5.87,4.483-9.236,11.29-9.236,18.676v38.104c0,2.361,0.347,4.661,1.007,6.846
		c-39.336,26.225-68.116,65.434-81.178,110.729c-0.042,0.146-0.179,0.482-0.532,0.432c-8.3-1.193-16.663-0.477-24.854,2.128
		c-19.33,6.146-34.074,22.949-37.563,42.809c-2.887,16.431,1.523,33.079,12.1,45.675c10.581,12.603,26.079,19.83,42.521,19.83
		c2.581,0,5.188-0.186,7.752-0.552c0.358-0.051,0.513,0.205,0.577,0.429c11.748,40.732,36.864,77.407,70.722,103.271
		c34.987,26.726,76.811,40.852,120.949,40.852s85.962-14.126,120.949-40.852c33.858-25.864,58.974-62.539,70.722-103.271
		c0.064-0.224,0.213-0.479,0.577-0.429c2.563,0.366,5.171,0.552,7.752,0.552c16.441,0,31.939-7.228,42.521-19.83
		C508.582,296.093,512.992,279.444,510.106,263.014z M341.249,53.766c2.578-0.703,5.273-0.176,7.396,1.445
		c2.123,1.622,3.341,4.083,3.341,6.755v38.104c0,2.672-1.218,5.134-3.341,6.755c-2.123,1.622-4.819,2.149-7.396,1.445L278.986,91.29
		V70.747L341.249,53.766z M263.986,89.519h-17v-17h17V89.519z M158.986,61.967c0-2.672,1.218-5.134,3.341-6.755
		c1.506-1.151,3.301-1.75,5.137-1.75c0.751,0,1.51,0.1,2.258,0.305l62.264,16.981V91.29l-62.263,16.981
		c-2.578,0.704-5.273,0.176-7.396-1.445c-2.123-1.622-3.341-4.083-3.341-6.755V61.967z M486.519,299.043
		c-7.724,9.199-19.035,14.476-31.033,14.476c-1.873,0-3.768-0.135-5.631-0.401c-7.739-1.103-14.934,3.573-17.111,11.122
		c-10.863,37.663-34.094,71.582-65.415,95.507c-32.349,24.711-71.023,37.772-111.843,37.772s-79.495-13.062-111.843-37.772
		c-31.321-23.925-54.552-57.844-65.415-95.507c-2.177-7.55-9.377-12.228-17.111-11.122c-1.863,0.267-3.758,0.401-5.631,0.401
		c-11.998,0-23.309-5.276-31.033-14.476c-7.832-9.328-10.962-21.202-8.813-33.435c2.534-14.424,13.263-26.635,27.334-31.108
		c6.018-1.913,12.133-2.443,18.176-1.575c7.717,1.108,14.898-3.569,17.078-11.123c12.126-42.05,38.909-78.431,75.516-102.69
		c4.056,2.932,8.812,4.473,13.682,4.473c2.078,0,4.175-0.278,6.244-0.842l66.821-18.224h29.991l66.821,18.224
		c2.07,0.564,4.166,0.842,6.244,0.842c4.87,0,9.626-1.541,13.682-4.473c36.607,24.259,63.389,60.64,75.517,102.691
		c2.178,7.553,9.359,12.229,17.077,11.122c6.044-0.868,12.159-0.339,18.176,1.575c14.071,4.474,24.8,16.685,27.334,31.108
		C497.481,277.841,494.351,289.715,486.519,299.043z"/>
	<path d="M255.486,313.519c-35.014,0-63.5,28.486-63.5,63.5s28.486,63.5,63.5,63.5s63.5-28.486,63.5-63.5
		S290.5,313.519,255.486,313.519z M238.986,409.019c0-9.098,7.402-16.5,16.5-16.5s16.5,7.402,16.5,16.5s-7.402,16.5-16.5,16.5
		S238.986,418.117,238.986,409.019z M286.546,414.232c0.284-1.697,0.439-3.438,0.439-5.214c0-14.785-10.241-27.216-24-30.591v-9.409
		c0-4.142-3.358-7.5-7.5-7.5s-7.5,3.358-7.5,7.5v9.409c-13.759,3.375-24,15.806-24,30.591c0,1.776,0.155,3.517,0.439,5.214
		c-10.65-8.904-17.439-22.279-17.439-37.214c0-26.743,21.757-48.5,48.5-48.5s48.5,21.757,48.5,48.5
		C303.986,391.953,297.196,405.328,286.546,414.232z"/>
	<path d="M190.98,248.719c-0.166-4.139-3.656-7.366-7.794-7.194c-8.74,0.35-18.217,1.75-28.296,9.567
		c-3.273,2.539-3.869,7.25-1.331,10.523c1.479,1.906,3.693,2.904,5.932,2.904c1.605,0,3.224-0.513,4.591-1.573
		c6.418-4.978,12.085-6.128,19.704-6.433C187.924,256.347,191.145,252.857,190.98,248.719z"/>
	<path d="M179.486,273.519c-6.341,0-11.5,5.159-11.5,11.5v8c0,6.341,5.159,11.5,11.5,11.5s11.5-5.159,11.5-11.5v-8
		C190.986,278.678,185.827,273.519,179.486,273.519z"/>
	<path d="M356.082,251.092c-10.08-7.817-19.557-9.218-28.296-9.567c-4.153-0.166-7.628,3.056-7.794,7.194s3.056,7.628,7.194,7.794
		c7.619,0.305,13.285,1.455,19.704,6.433c1.367,1.061,2.985,1.573,4.591,1.573c2.239,0,4.454-0.998,5.932-2.904
		C359.95,258.342,359.355,253.63,356.082,251.092z"/>
	<path d="M331.486,273.519c-6.341,0-11.5,5.159-11.5,11.5v8c0,6.341,5.159,11.5,11.5,11.5s11.5-5.159,11.5-11.5v-8
		C342.986,278.678,337.827,273.519,331.486,273.519z"/>
</g>
</svg>