<?xml version="1.0" ?>
<!-- Uploaded to: SVG Repo, www.svgrepo.com, Generator: SVG Repo Mixer Tools -->
<svg width="800px" height="800px" viewBox="0 0 64 64" id="svg5" version="1.1" xml:space="preserve" xmlns="http://www.w3.org/2000/svg" xmlns:svg="http://www.w3.org/2000/svg">
<defs id="defs2"/>
<g id="layer1" transform="translate(-288,-384)">
<path d="m 325,401 a 1.0001,1.0001 0 0 0 -1,1 v 6 a 1.0001,1.0001 0 0 0 1,1 h 6 a 1.0001,1.0001 0 0 0 1,-1 v -6 a 1.0001,1.0001 0 0 0 -1,-1 z m 1,2 h 4 v 4 h -4 z" id="path40699" style="color:#000000;fill:#000000;fill-rule:evenodd;stroke-linecap:round;stroke-linejoin:round;stroke-miterlimit:4.1;-inkscape-stroke:none"/>
<path d="m 311,388 a 1.0001,1.0001 0 0 0 -1,1 v 4.45312 c -8.00809,1.82315 -14,8.99267 -14,17.54688 v 16 a 1.0001,1.0001 0 0 0 -1,1 v 5 a 1.0001,1.0001 0 0 0 1,1 h 9 v 5.21484 c -0.87769,0.3904 -1.5,1.2723 -1.5,2.28516 0,1.3677 1.1323,2.5 2.5,2.5 h 29 c 1.3677,0 2.5,-1.1323 2.5,-2.5 0,-1.3677 -1.1323,-2.5 -2.5,-2.5 v -5 h 9 a 1.0001,1.0001 0 0 0 1,-1 v -5 a 1.0001,1.0001 0 0 0 -1,-1 v -16 c 0,-8.55532 -5.9835,-15.73209 -14,-17.55273 V 389 a 1.0001,1.0001 0 0 0 -1,-1 z m 1,2 h 7 v 33 h -12 v -11 a 1,1 0 0 0 -1,-1 1,1 0 0 0 -1,1 v 12 3 h -7 v -16 c 0,-8.84838 7.15162,-16 16,-16 a 1,1 0 0 0 1,-1 1,1 0 0 0 -1,-1 c -0.67641,0 -1.34281,0.0403 -2,0.11328 z m 9,0 h 7 v 3.11328 C 327.34268,393.04054 326.67616,393 326,393 a 1,1 0 0 0 -1,1 1,1 0 0 0 1,1 c 0.97844,0 1.93472,0.0881 2.86328,0.25586 C 336.33201,396.60487 342,403.13006 342,411 v 16 h -7 v -3 -12 a 1,1 0 0 0 -1,-1 1,1 0 0 0 -1,1 v 11 h -12 z m -14,35 h 12 v 2 h -12 z m 14,0 h 12 v 2 h -12 z m -24,4 h 8 v 3 h -8 z m 10,0 h 12 v 2 h -12 z m 14,0 h 12 v 2 h -12 z m 14,0 h 8 v 3 h -8 z m -28,4 h 12 v 2 h -12 z m 14,0 h 12 v 2 h -12 z m -14,4 h 12 v 2 h -12 z m 14,0 h 12 v 2 h -12 z m -15,4 h 14 15 c 0.2943,0 0.5,0.2057 0.5,0.5 0,0.2943 -0.2057,0.5 -0.5,0.5 h -29 c -0.2943,0 -0.5,-0.2057 -0.5,-0.5 0,-0.2943 0.2057,-0.5 0.5,-0.5 z" id="path45641" style="color:#000000;fill:#000000;fill-rule:evenodd;stroke-linecap:round;stroke-linejoin:round;stroke-miterlimit:4.1;-inkscape-stroke:none"/>
</g>
</svg>