<?xml version="1.0" encoding="iso-8859-1"?>
<!-- Uploaded to: SVG Repo, www.svgrepo.com, Generator: SVG Repo Mixer Tools -->
<svg fill="#000000" height="800px" width="800px" version="1.1" id="Layer_1" xmlns="http://www.w3.org/2000/svg" xmlns:xlink="http://www.w3.org/1999/xlink" 
	 viewBox="0 0 504.236 504.236" xml:space="preserve">
<g transform="translate(1 1)">
	<g>
		<g>
			<path d="M494.528,192.679h-8.773c-4.207-47.227-43.58-83.934-91.949-83.934v-8.393h16.787c5.036,0,8.393-3.357,8.393-8.393
				V41.597c0-5.036-3.357-8.393-8.393-8.393h-50.361c-5.036,0-8.393,3.357-8.393,8.393v50.361c0,5.036,3.357,8.393,8.393,8.393
				h16.787v8.393c-48.369,0-87.742,36.707-91.949,83.934h-8.773c-5.036,0-8.393,3.357-8.393,8.393v67.148v167.869v58.754
				c0,5.036,3.357,8.393,8.393,8.393h218.229c5.036,0,8.393-3.357,8.393-8.393v-293.77
				C502.921,196.036,499.564,192.679,494.528,192.679z M368.626,75.17h8.393c5.036,0,8.393-3.357,8.393-8.393
				s-3.357-8.393-8.393-8.393h-8.393V49.99H402.2v33.574h-33.574V75.17z M377.859,125.531h16.787
				c38.61,0,70.505,29.377,74.702,67.148h-167.03C306.515,154.908,338.41,125.531,377.859,125.531z M284.692,402.515h83.934
				c5.036,0,8.393-3.357,8.393-8.393s-3.357-8.393-8.393-8.393h-83.934v-25.18h67.148c5.036,0,8.393-3.357,8.393-8.393
				c0-5.036-3.357-8.393-8.393-8.393h-67.148v-25.18h41.967c5.036,0,8.393-3.357,8.393-8.393c0-5.036-3.357-8.393-8.393-8.393
				h-41.967v-25.18H402.2v151.082H284.692V402.515z M486.134,486.449H284.692v-41.967h125.902c5.036,0,8.393-3.357,8.393-8.393
				V268.22c0-5.036-3.357-8.393-8.393-8.393H284.692v-50.361h201.443V486.449z"/>
			<path d="M284.692,75.17h8.393c5.036,0,8.393-3.357,8.393-8.393s-3.357-8.393-8.393-8.393h-8.393
				c-5.036,0-8.393,3.357-8.393,8.393S279.656,75.17,284.692,75.17z"/>
			<path d="M183.971,75.17h8.393c5.036,0,8.393-3.357,8.393-8.393s-3.357-8.393-8.393-8.393h-8.393
				c-5.036,0-8.393,3.357-8.393,8.393S178.934,75.17,183.971,75.17z"/>
			<path d="M217.544,75.17h8.393c5.036,0,8.393-3.357,8.393-8.393s-3.357-8.393-8.393-8.393h-8.393
				c-5.036,0-8.393,3.357-8.393,8.393S212.508,75.17,217.544,75.17z"/>
			<path d="M259.511,75.17c5.036,0,8.393-3.357,8.393-8.393s-3.357-8.393-8.393-8.393h-8.393c-5.036,0-8.393,3.357-8.393,8.393
				s3.357,8.393,8.393,8.393H259.511z"/>
			<path d="M318.266,75.17h8.393c5.036,0,8.393-3.357,8.393-8.393s-3.357-8.393-8.393-8.393h-8.393
				c-5.036,0-8.393,3.357-8.393,8.393S313.23,75.17,318.266,75.17z"/>
			<path d="M284.692,36.561l7.554,2.518c0.839,0.839,1.679,0.839,2.518,0.839c3.357,0,6.715-2.518,8.393-5.875
				c0.839-5.036-1.679-9.233-5.036-10.912l-7.554-2.518c-5.036-1.679-9.233,0.839-10.911,5.036
				C277.977,30.685,280.495,34.882,284.692,36.561z"/>
			<path d="M316.587,46.633l7.554,2.518c0.839,0.839,1.679,0.839,2.518,0.839c3.357,0,6.715-1.679,7.554-5.036
				c1.679-5.036-0.839-9.233-5.036-10.911l-6.715-3.357c-5.036-1.679-9.233,0.839-10.911,5.036
				C309.872,40.757,312.39,44.954,316.587,46.633z"/>
			<path d="M234.331,1.308l-5.036-1.679c-5.036-1.679-9.233,0-10.911,5.036c-1.679,5.036,0.839,9.233,5.036,10.911l5.036,1.679
				c0.839,0.839,1.679,0.839,2.518,0.839c3.357,0,6.715-1.679,8.393-5.875C241.046,7.184,238.528,2.987,234.331,1.308z"/>
			<path d="M251.957,25.649l8.393,2.518c0.839,0.839,1.679,0.839,2.518,0.839c3.357,0,6.715-2.518,7.554-5.875
				c1.679-5.036-0.839-9.233-5.036-10.911l-7.554-2.518c-5.036-1.679-9.233,0.839-10.911,5.036
				C245.243,19.774,247.761,23.97,251.957,25.649z"/>
			<path d="M271.262,110.423c-1.679-4.197-6.715-6.715-10.911-5.036l-7.554,2.518c-4.197,1.679-6.715,6.715-5.036,10.911
				c0.839,3.357,4.197,5.875,7.554,5.875c0.839,0,1.679-0.839,3.357-0.839l7.554-2.518
				C270.423,119.656,272.941,114.62,271.262,110.423z"/>
			<path d="M228.456,115.459l-5.036,1.679c-4.197,1.679-6.715,6.715-5.036,10.911c0.839,3.357,4.197,5.875,7.554,5.875
				c0.839,0,1.679,0,3.357-0.839l5.036-1.679c4.197-1.679,6.715-6.715,5.036-10.911C237.689,116.298,232.652,113.78,228.456,115.459
				z"/>
			<path d="M292.246,94.475l-7.554,2.518c-4.197,1.679-6.715,6.715-5.036,10.911c0.839,3.357,4.197,5.875,7.554,5.875
				c0.839,0,1.679,0,3.357-0.839l7.554-2.518c4.197-1.679,6.715-6.715,5.036-10.911S296.443,92.797,292.246,94.475z"/>
			<path d="M324.141,83.564l-7.554,2.518c-4.197,1.679-6.715,6.715-5.036,10.911c0.839,3.357,4.197,5.875,7.554,5.875
				c0.839,0,1.679,0,3.357-0.839l7.554-2.518c4.197-1.679,6.715-6.715,5.036-10.911S328.338,81.885,324.141,83.564z"/>
			<path d="M163.826,302.633H68.98c-38.61,0-69.666,31.056-69.666,69.666v130.938h234.177V372.298
				C233.492,333.689,202.436,302.633,163.826,302.633z M217.544,486.449H16.102V372.298c0-29.377,23.502-52.879,52.879-52.879
				h95.685c29.377,0,52.879,23.502,52.879,52.879V486.449z"/>
		</g>
	</g>
</g>
</svg>