<?xml version="1.0" encoding="iso-8859-1"?>
<!-- Uploaded to: SVG Repo, www.svgrepo.com, Generator: SVG Repo Mixer Tools -->
<!DOCTYPE svg PUBLIC "-//W3C//DTD SVG 1.1//EN" "http://www.w3.org/Graphics/SVG/1.1/DTD/svg11.dtd">
<svg fill="#000000" version="1.1" id="Capa_1" xmlns="http://www.w3.org/2000/svg" xmlns:xlink="http://www.w3.org/1999/xlink" 
	 width="800px" height="800px" viewBox="0 0 235.516 235.515"
	 xml:space="preserve">
<g>
	<g>
		<ellipse cx="77.836" cy="88.914" rx="10.583" ry="14.218"/>
		<path d="M100.862,111.649c5.417,2.21,12.211-1.872,15.19-9.125c2.981-7.264,1.034-14.952-4.39-17.176
			c-5.384-2.216-12.193,1.875-15.166,9.123C93.513,101.747,95.477,109.417,100.862,111.649z"/>
		<path d="M54.801,111.649c5.394-2.232,7.35-9.902,4.366-17.178c-2.966-7.248-9.766-11.331-15.168-9.123
			c-5.424,2.216-7.37,9.913-4.388,17.176C42.601,109.77,49.401,113.854,54.801,111.649z"/>
		<path d="M235.516,176.918l-16.121-48.911c-0.028-0.092-0.137-0.12-0.177-0.2c-1.848-14.18-33.438-21.888-63.462-21.888
			c-2.597,0-5.197,0.136-7.794,0.249c-4.204-18.951-8.528-38.543-6.188-57.524c0.016-0.163-0.124-0.261-0.124-0.411
			c1.065-1.222,1.795-2.533,1.795-4.043V28.373c0-15.549-63.225-15.729-65.908-15.729c-2.69,0-65.92,0.18-65.92,15.729v15.815
			c0,1.491,0.739,2.801,1.797,4.027c0,0.159-0.134,0.265-0.11,0.415c2.334,19.077-2.023,38.766-6.242,57.813
			c-4.338,19.589-8.83,39.842-6.357,60.111c1.961,14.819,19.502,25.904,33.873,25.904h2.358c-1.986,3.138-3.332,6.692-3.332,10.503
			c0,3.326,0.859,6.66,2.484,9.622c3.515,6.348,10.197,10.287,17.433,10.287c2.098,0,4.171-0.32,5.843-0.905
			c6.233-1.379,13.565-7.206,21.776-17.309h73.33c0.429,0,0.842,0.044,1.263,0.044c0.429,0,0.838-0.044,1.267-0.044h16.903
			c8.227,10.103,15.54,15.93,21.491,17.216c1.983,0.661,4.067,0.998,6.147,0.998c7.254,0,13.922-3.939,17.448-10.303
			c1.619-2.946,2.469-6.256,2.469-9.622c0-3.503-1.183-6.753-2.881-9.73C228.956,188.512,235.516,182.853,235.516,176.918z
			 M219.603,185.43c1.134-2.517,1.888-5.182,1.888-8.011c0-3.351-0.854-6.664-2.477-9.622c-3.499-6.348-10.183-10.287-17.444-10.287
			c-2.068,0-4.132,0.321-5.823,0.886c-6.219,1.398-13.549,7.21-21.776,17.296h-23.082h-8.392H83.298l7.859-23.579l4.929-14.796
			c0.958,0.966,1.981,1.876,3.242,2.757c0.008,0,0.008,0.017,0.008,0.017s0.008,0,0.016,0c1.487,1.025,2.994,2.056,4.867,2.962
			c10.772,5.226,27.312,8.187,44.116,8.892c2.224,0.104,4.456,0.213,6.684,0.229c0.257,0,0.51,0.017,0.77,0.017
			c24.61,0,50.161-5.214,59.707-14.872l13.32,40.03C228.443,179.696,225.021,182.561,219.603,185.43z M214.794,202.939
			c0,2.268-0.533,4.416-1.631,6.396c-2.333,4.216-6.777,6.837-11.598,6.837c-1.383,0-2.737-0.229-4.389-0.758
			c-4.132-0.897-9.706-5.406-15.869-12.499c-0.874-1.018-1.724-1.96-2.612-3.073c-0.193-0.221-0.369-0.397-0.554-0.63l-1.002-1.271
			H157.03h-2.561h-34.109h-14.312h-28.12l-1.006,1.271c-7.44,9.386-14.182,15.145-19.326,16.286
			c-5.941,1.948-12.662-0.77-15.663-6.163c-1.088-1.995-1.639-4.132-1.639-6.388c0-3.939,1.751-7.674,4.791-10.219l0.353-0.301
			l2.729-2.269l-3.082-2.561c-0.621-0.513-0.928-1.25-1.438-1.848c-1.992-2.368-3.352-5.197-3.352-8.331
			c0-2.256,0.551-4.408,1.631-6.372c2.342-4.231,6.785-6.837,11.596-6.837c1.384,0,2.757,0.213,4.398,0.734
			c4.813,1.073,11.58,6.824,19.02,16.205l0.693,0.854l0.314,0.397h4.324h4.743h46.442h11.762h31.951l0.998-1.251
			c7.449-9.381,14.214-15.14,19.319-16.298c6.012-1.932,12.672,0.781,15.653,6.18c1.106,1.995,1.643,4.132,1.643,6.388
			c0,3.939-1.743,7.674-4.793,10.211l-3.081,2.577l0.437,0.353l2.661,2.208c0.092,0.076,0.136,0.188,0.212,0.269
			c0.906,0.789,1.487,1.799,2.133,2.765C213.784,197.925,214.794,200.318,214.794,202.939z M155.756,112.595
			c35.406,0,57.122,9.586,57.122,16.455c0,6.868-21.732,16.47-57.122,16.47c-0.429,0-0.805-0.048-1.218-0.048
			c-2.332-0.016-4.517-0.137-6.717-0.229c-8.868-0.385-16.743-1.318-23.399-2.701c6.773-1.595,14.552-2.604,22.895-3.033
			c2.208-0.124,4.425-0.217,6.701-0.232c0.589-0.016,1.158-0.076,1.755-0.076c1.848,0,3.351-1.486,3.351-3.342
			c0-1.84-1.495-3.343-3.351-3.343c-0.89,0-1.731,0.076-2.621,0.093c-2.28,0.031-4.508,0.136-6.725,0.244
			c-13.216,0.737-25.243,2.913-34.169,6.332c-2.284-0.826-4.3-1.688-6.029-2.589c3.557-2.854,10.245-5.566,19.228-7.546
			c5.723-1.255,12.315-2.244,19.845-2.714c2.152-0.136,4.461-0.168,6.744-0.212c1.251-0.032,2.441-0.124,3.735-0.124
			c1.848,0,3.351-1.487,3.351-3.343c0-1.839-1.495-3.338-3.351-3.338c-1.695,0-3.298,0.09-4.953,0.144
			c-2.292,0.058-4.568,0.134-6.769,0.285c-16.354,1.1-30.088,4.44-38.463,9.317c-0.441,0.261-0.763,0.553-1.164,0.813
			c-1.411,0.905-2.677,1.855-3.711,2.854c-1.204-1.259-2.043-2.501-2.043-3.667c0-1.471,1.196-3.082,3.102-4.661
			c5.849-4.907,20.111-9.812,40.861-11.311c2.141-0.158,4.501-0.185,6.777-0.269C151.509,112.738,153.532,112.595,155.756,112.595z
			 M77.543,37.4c-18.254,0-32.672-1.491-42.735-3.338c13.305-3.643,24.796-3.573,43.268-2.417c1.8-0.072,3.425-1.302,3.543-3.136
			c0.118-1.843-1.289-3.43-3.132-3.536c-23.275-1.477-36.584-1.281-55.815,6.037c-2.427-0.874-3.943-1.691-4.35-2.343v-0.076
			c1.789-3.346,22.93-9.257,59.222-9.257c36.443,0,57.643,5.959,59.278,8.776C135.202,31.439,114.001,37.4,77.543,37.4z
			 M18.322,44.181v-8.225c0.769,0.375,1.587,0.735,2.448,1.072c0.591,0.491,1.281,0.81,2.06,0.81c0.038,0,0.076-0.024,0.13-0.024
			c18.3,6.141,52.614,6.268,54.583,6.268c2.152,0,42.981-0.143,59.238-8.142l0.023,7.985c-1.631,3.334-22.826,9.295-59.268,9.295
			C41.094,53.219,19.917,47.258,18.322,44.181z M34.586,185.75c-11.139,0-25.77-8.96-27.239-20.045
			c-2.33-19.1,2.024-38.771,6.24-57.817c3.995-18.051,7.88-36.668,6.562-55.298c17.32,7.183,55.323,7.321,57.395,7.321
			c2.074,0,40.062-0.138,57.375-7.321c-1.271,18.182,2.376,36.347,6.287,53.986c-18.283,1.499-35.329,5.763-43.737,12.639
			c-5.841-5.55-13.737-9.073-19.72-9.059c-9.648,0.008-24.421,9.335-27.112,21.522c-0.487,1.526-0.78,3.153-0.771,4.849
			c0.032,5.979,3.32,11.128,8.189,13.837c2.26,1.247,4.875,1.94,7.646,1.94c4.891,0,9.245-2.232,12.129-5.727
			c1.733,2.067,4.067,3.479,6.616,4.436l-6.877,20.663c-6.75-7.498-12.85-12.066-17.889-13.197
			c-8.975-2.873-19.063,1.146-23.59,9.334c-1.617,2.925-2.477,6.255-2.477,9.605c0,2.957,0.86,5.727,2.082,8.331H34.586
			L34.586,185.75z"/>
	</g>
</g>
</svg>