<svg xmlns="http://www.w3.org/2000/svg" width="45" height="45" viewBox="0 0 45 45">
  <g id="Group_106" data-name="Group 106" transform="translate(-192 -573)">
    <g id="Group_94" data-name="Group 94" transform="translate(191.562 572.871)">
      <circle id="Ellipse_12" data-name="Ellipse 12" cx="22.5" cy="22.5" r="22.5" transform="translate(0.438 0.129)" fill="#e9e9e9"/>
      <path id="Path_62" data-name="Path 62" d="M19.667,6.55A6.248,6.248,0,0,0,21.179,2,6.334,6.334,0,0,0,16.9,4.168a5.948,5.948,0,0,0-1.426,4.408A5.264,5.264,0,0,0,19.667,6.55Zm3.595,10.613a6.433,6.433,0,0,1,3.081-5.435,6.647,6.647,0,0,0-5.221-2.853c-2.225-.228-4.279,1.3-5.463,1.3S12.806,8.9,10.951,8.933a7.018,7.018,0,0,0-5.906,3.609C2.535,16.907,4.4,23.4,6.914,26.921c1.141,1.726,2.568,3.68,4.451,3.609s2.5-1.17,4.679-1.17,2.853,1.17,4.707,1.127,3.167-1.769,4.365-3.495a15.691,15.691,0,0,0,1.969-4.065,6.291,6.291,0,0,1-3.823-5.763Z" transform="translate(7.152 4.116)"/>
    </g>
  </g>
</svg>
