<svg xmlns="http://www.w3.org/2000/svg" width="23.538" height="32.784" viewBox="0 0 23.538 32.784">
  <g id="Group_46" data-name="Group 46" transform="translate(-6 -2.143)">
    <path id="Path_11" data-name="Path 11" d="M17.181,33.361H8.942a.588.588,0,0,1-.431-.188L6.158,30.651a.587.587,0,0,1-.158-.4v-15.3a.59.59,0,0,1,.106-.338L8.46,11.251A.588.588,0,0,1,8.942,11h8.147a.588.588,0,0,1,.475.242L20.01,14.6a.59.59,0,0,1,.113.346v15.3a.587.587,0,0,1-.158.4l-2.354,2.523A.588.588,0,0,1,17.181,33.361ZM9.2,32.184h7.728l2.021-2.166V15.143l-2.157-2.966H9.248l-2.071,2.96V30.018ZM19.534,29.83Z" transform="translate(0 1.567)" fill="#010101"/>
    <path id="Path_12" data-name="Path 12" d="M15.473,12.388H9.588A.588.588,0,0,1,9,11.8V9.445a.588.588,0,0,1,.588-.588h5.885a.588.588,0,0,1,.588.588V11.8A.588.588,0,0,1,15.473,12.388Zm-5.3-1.177h4.708V10.034H10.177Z" transform="translate(0.531 1.188)" fill="#010101"/>
    <path id="Path_13" data-name="Path 13" d="M14.827,11.222H11.3a.588.588,0,0,1-.588-.588V4.749A.588.588,0,0,1,11.3,4.16h3.531a.588.588,0,0,1,.588.588v5.885A.588.588,0,0,1,14.827,11.222Zm-2.942-1.177h2.354V5.337H11.885ZM27.773,34.76H24.242a1.768,1.768,0,0,1-1.765-1.765V24.756a.588.588,0,0,1,.588-.588H28.95a.588.588,0,0,1,.588.588v8.238a1.768,1.768,0,0,1-1.765,1.765Zm-4.119-9.415v7.65a.588.588,0,0,0,.588.588h3.531a.588.588,0,0,0,.588-.588v-7.65ZM8.942,6.514H6.588a.588.588,0,0,1,0-1.177H8.942a.588.588,0,1,1,0,1.177Zm0-2.362a.586.586,0,0,1-.417-.172l-.832-.832a.588.588,0,1,1,.832-.832l.832.832a.588.588,0,0,1-.415,1ZM8.11,9.688a.588.588,0,0,1-.417-1l.832-.832a.588.588,0,1,1,.832.832l-.832.832a.586.586,0,0,1-.415.172ZM16,30.22H10.119a.588.588,0,0,1-.588-.588V19.04a.588.588,0,0,1,.588-.588H16a.588.588,0,0,1,.588.588V29.632A.588.588,0,0,1,16,30.22Zm-5.3-1.177h4.708V19.628H10.708ZM19.534,32.4H6.588a.588.588,0,1,1,0-1.177H19.534a.588.588,0,1,1,0,1.177Zm0-15.3H6.588a.588.588,0,0,1,0-1.177H19.534a.588.588,0,1,1,0,1.177Z" transform="translate(0)" fill="#010101"/>
    <path id="Path_14" data-name="Path 14" d="M26.473,24.034H20.588a.588.588,0,1,1,0-1.177h5.885a.588.588,0,1,1,0,1.177Z" transform="translate(2.477 3.664)" fill="#010101"/>
  </g>
</svg>
