<svg xmlns="http://www.w3.org/2000/svg" width="19.28" height="36.037" viewBox="0 0 19.28 36.037">
  <g id="_16-Dress" data-name="16-Dress" transform="translate(-11.5 -0.5)">
    <path id="Path_16" data-name="Path 16" d="M22.093,19.472a8.378,8.378,0,0,0,5.332-2.285c0-2.285-.762-2.285-.762-3.808,0-2.285,1.523-2.285,1.523-5.332a3.047,3.047,0,0,0-6.093,0,3.047,3.047,0,0,0-6.093,0c0,3.047,1.523,3.047,1.523,5.332,0,1.523-.762,1.523-.762,3.808a8.378,8.378,0,0,0,5.332,2.285Z" transform="translate(-0.953 -0.953)" fill="none" stroke="#000" stroke-linejoin="round" stroke-width="1"/>
    <path id="Path_17" data-name="Path 17" d="M15.808,18a8.378,8.378,0,0,0,5.332,2.285A8.378,8.378,0,0,0,26.472,18m0,2.285c3.808,5.8,3.808,15.233,3.808,15.233,0,.838-4.09,1.523-9.14,1.523S12,36.356,12,35.518c0,0,0-9.43,3.808-15.233" transform="translate(0 -4.052)" fill="none" stroke="#000" stroke-linejoin="round" stroke-width="1"/>
    <path id="Path_18" data-name="Path 18" d="M18.093,38.425a3.047,3.047,0,0,1-6.093,0v-.762m12.187,1.523a3.047,3.047,0,0,1-6.093,0m-.16,0A18.681,18.681,0,0,1,18.855,27m5.492,12.187A18.681,18.681,0,0,0,23.425,27" transform="translate(0 -6.197)" fill="none" stroke="#000" stroke-linejoin="round" stroke-width="1"/>
    <path id="Path_19" data-name="Path 19" d="M28,41.762a3.047,3.047,0,0,0,6.093,0V41" transform="translate(-3.813 -9.533)" fill="none" stroke="#000" stroke-linejoin="round" stroke-width="1"/>
    <path id="Path_20" data-name="Path 20" d="M17.523,4.808,16,1h3.047V4.047" transform="translate(-0.953)" fill="none" stroke="#000" stroke-linejoin="round" stroke-width="1"/>
    <path id="Path_21" data-name="Path 21" d="M29.523,4.808,31.047,1H28V4.047" transform="translate(-3.813)" fill="none" stroke="#000" stroke-linejoin="round" stroke-width="1"/>
  </g>
</svg>
