<svg id="Group_66" data-name="Group 66" xmlns="http://www.w3.org/2000/svg" xmlns:xlink="http://www.w3.org/1999/xlink" width="57.286" height="40.329" viewBox="0 0 57.286 40.329">
  <defs>
    <clipPath id="clip-path">
      <path id="Path_28" data-name="Path 28" d="M184.338,60.789a1.694,1.694,0,1,0,1.7-1.7,1.695,1.695,0,0,0-1.7,1.7" transform="translate(-184.338 -59.086)" fill="none"/>
    </clipPath>
    <linearGradient id="linear-gradient" x1="-10.629" y1="8.494" x2="-10.571" y2="8.494" gradientUnits="objectBoundingBox">
      <stop offset="0" stop-color="#007cc3"/>
      <stop offset="1" stop-color="#0090d3"/>
    </linearGradient>
    <clipPath id="clip-path-2">
      <path id="Path_29" data-name="Path 29" d="M24.34,74.021c1.118,0,2.533.108,3.242,1.106a3.43,3.43,0,0,1-.041,3.376,6.022,6.022,0,0,1-2.532,2.56c-.858.5-1.775.886-2.623,1.4a7.76,7.76,0,0,0-3.5,9.247A6.007,6.007,0,0,0,21.2,94.673c1.96,1.268,5.413,1.479,6.959-.566a4.352,4.352,0,0,0,.208-4.654c-.284-.448-.7-.843-.83-.771-.22.122.707,1.381.356,2.638a2.517,2.517,0,0,1-3.55,1.5,2.948,2.948,0,0,1-1.145-1.44,4.971,4.971,0,0,1,.2-3.8,10.008,10.008,0,0,1,2.335-3.1c1.422-1.359,3.2-2.5,4.069-4.323a5.122,5.122,0,0,0,.491-2.716,4.421,4.421,0,0,0-1.107-2.515,4.134,4.134,0,0,0-2.272-1.263,4.046,4.046,0,0,0-.746-.069,4.133,4.133,0,0,0-1.829.425" transform="translate(-18.438 -73.596)" fill="none"/>
    </clipPath>
    <linearGradient id="linear-gradient-2" x1="-0.214" y1="1.15" x2="-0.199" y2="1.15" xlink:href="#linear-gradient"/>
    <clipPath id="clip-path-3">
      <path id="Path_30" data-name="Path 30" d="M2.232,66.816A5.032,5.032,0,0,0,0,70.843v.039a3.955,3.955,0,0,0,.181,1.175c.813,2.58,3.85,3.746,6.351,3.3a5.687,5.687,0,0,0,3.486-2.18,3.378,3.378,0,0,0,.725-3.335,2.348,2.348,0,0,0-3.908-.4,1.763,1.763,0,0,1,.635-.257,2.345,2.345,0,0,1,1.344-.088,1.349,1.349,0,0,1,.967,1.267,3.144,3.144,0,0,1-1.325,2,5.614,5.614,0,0,1-1.7.978c-1.331.452-3.185.089-3.253-1.618a2.776,2.776,0,0,1,.666-1.751c.389-.505.868-.934,1.277-1.423.465-.556,1.13-1.527.577-2.229L6.011,66.3A1.049,1.049,0,0,0,5.4,65.97a2.851,2.851,0,0,0-.552-.052,4.949,4.949,0,0,0-2.613.9" transform="translate(0 -65.918)" fill="none"/>
    </clipPath>
    <linearGradient id="linear-gradient-3" x1="0" y1="2.776" x2="0.017" y2="2.776" xlink:href="#linear-gradient"/>
    <clipPath id="clip-path-4">
      <path id="Path_31" data-name="Path 31" d="M20.549,27.4c-3.262-3.676-.295-6.052,1.924-7.274-.331-.168-.63-.307-.868-.418a2.48,2.48,0,0,1-1.339-1.535,2.314,2.314,0,0,1-.085-.427c-6.389,5.086.368,9.654.368,9.654" transform="translate(-17.434 -17.749)" fill="none"/>
    </clipPath>
    <linearGradient id="linear-gradient-4" x1="0.027" y1="3.818" x2="0.05" y2="3.818" xlink:href="#linear-gradient"/>
    <clipPath id="clip-path-5">
      <path id="Path_32" data-name="Path 32" d="M32.974,3.815A2.2,2.2,0,0,0,34.16,5.173c1.823.848,7.311,3.4,3.278,7.949,0,0,8.066-5.453-1.761-11.077,0,0-.8-.455.454-2.045,0,0-3.858,1.458-3.158,3.814" transform="translate(-32.889 -0.001)" fill="none"/>
    </clipPath>
    <linearGradient id="linear-gradient-5" x1="-0.439" y1="3.073" x2="-0.424" y2="3.073" xlink:href="#linear-gradient"/>
    <clipPath id="clip-path-6">
      <rect id="Rectangle_23" data-name="Rectangle 23" width="57.286" height="40.329" fill="none"/>
    </clipPath>
  </defs>
  <g id="Group_67" data-name="Group 67" transform="translate(36.017 11.545)">
    <g id="Group_66-2" data-name="Group 66" clip-path="url(#clip-path)">
      <rect id="Rectangle_16" data-name="Rectangle 16" width="3.389" height="3.389" transform="translate(0)" fill="url(#linear-gradient)"/>
    </g>
  </g>
  <g id="Group_69" data-name="Group 69" transform="translate(3.602 14.38)">
    <g id="Group_68" data-name="Group 68" clip-path="url(#clip-path-2)">
      <rect id="Rectangle_17" data-name="Rectangle 17" width="12.812" height="22.555" transform="translate(-0.86 0)" fill="url(#linear-gradient-2)"/>
    </g>
  </g>
  <g id="Group_71" data-name="Group 71" transform="translate(0 12.88)">
    <g id="Group_70" data-name="Group 70" clip-path="url(#clip-path-3)">
      <rect id="Rectangle_18" data-name="Rectangle 18" width="11.275" height="9.886" transform="translate(0 0)" fill="url(#linear-gradient-3)"/>
    </g>
  </g>
  <g id="Group_73" data-name="Group 73" transform="translate(3.406 3.468)">
    <g id="Group_72" data-name="Group 72" clip-path="url(#clip-path-4)">
      <rect id="Rectangle_19" data-name="Rectangle 19" width="8.68" height="9.654" transform="translate(-3.642 0)" fill="url(#linear-gradient-4)"/>
    </g>
  </g>
  <g id="Group_75" data-name="Group 75" transform="translate(6.426 0)">
    <g id="Group_74" data-name="Group 74" clip-path="url(#clip-path-5)">
      <rect id="Rectangle_20" data-name="Rectangle 20" width="13.231" height="13.122" transform="translate(-0.615 0)" fill="url(#linear-gradient-5)"/>
    </g>
  </g>
  <g id="Group_77" data-name="Group 77">
    <g id="Group_76" data-name="Group 76" clip-path="url(#clip-path-6)">
      <path id="Path_33" data-name="Path 33" d="M93.356,84.133H88.1c.354,1.939,1.838,3.793,4.872,2.883-2.934,4.114-8.413,1.45-7.671-2.984a4.332,4.332,0,0,1,4.114-3.911,3.576,3.576,0,0,1,3.945,4.012m-3.979-3.422c-.995.084-1.517,1.568-1.332,3.1,3.945-.169,2.209-3.186,1.332-3.1" transform="translate(-68.577 -64.463)" fill="#0b0e10"/>
      <path id="Path_34" data-name="Path 34" d="M134.86,88.406c.506-1.585.4-4.35.4-6.2a1.2,1.2,0,0,0-1.18-1.2,2.111,2.111,0,0,0-1.6.759c-.186,2.445-.371,5.631.522,6.643h-3.962c.708-2.192.809-6.693-.32-7.873l3.911-.792c-.017.371-.051.86-.1,1.4a4.054,4.054,0,0,1,3.271-1.517A2.385,2.385,0,0,1,138.181,82c0,1.6-.1,5.564.624,6.407Z" transform="translate(-103.572 -64.065)" fill="#0b0e10"/>
      <path id="Path_35" data-name="Path 35" d="M184.094,88.892c.708-2.192.809-6.693-.32-7.873l3.928-.792c-.118,2.175-.809,7.334.354,8.666Z" transform="translate(-147.867 -64.551)" fill="#0b0e10"/>
      <path id="Path_36" data-name="Path 36" d="M217.264,84.133H212c.354,1.939,1.838,3.793,4.872,2.883-2.934,4.114-8.413,1.45-7.671-2.984a4.332,4.332,0,0,1,4.114-3.911,3.576,3.576,0,0,1,3.945,4.012m-3.979-3.422c-.995.084-1.517,1.568-1.332,3.1,3.945-.169,2.209-3.186,1.332-3.1" transform="translate(-168.275 -64.463)" fill="#0b0e10"/>
      <path id="Path_37" data-name="Path 37" d="M87.8,141.387c0,.927,1.989,1.737,2.681,2.04,3.321,1.382,2.647,5.732-1.838,5.429l-2.9-.169-.236-2.546c2.242,2.7,4.6,2.428,4.6.961,0-1.736-5.294-1.9-4.855-4.94.421-3.119,4.417-2.242,6.457-2.242V142.5a8.664,8.664,0,0,0-1.72-1.7c-.944-.624-2.192-.455-2.192.59" transform="translate(-68.576 -112.49)" fill="#0b0e10"/>
      <path id="Path_38" data-name="Path 38" d="M130.375,149.4a2.186,2.186,0,0,0,.421-.911c-1.6,1.4-4.535,1.315-4.535-1.045,0-2.444,4.552-3.675,4.552-3.675-.051-1.062,0-2.293-.944-2.276-1.366.017-.911,2.394-.911,2.394a3.531,3.531,0,0,0-2.259-.523,3.23,3.23,0,0,1,3.3-2.63c2.883,0,3.49,1.838,3.49,4.367-.017,1.854.253,3.709.758,4.3Zm.556-5.041a3.438,3.438,0,0,0-1.669,2.343c-.253,1.416,2.158,2.377,1.669-2.343" transform="translate(-101.591 -113.236)" fill="#0b0e10"/>
      <path id="Path_39" data-name="Path 39" d="M169.152,147.114c0,.017.017.034.017.051l-.843,1.922c0,.017-.017.034-.017.05l-.253.54h-1.3c-1.1-2.7-2.36-6.643-3.911-8.6h4.973c-1.113,1.2-.118,3.423,1.012,5.5,1.028-1.956,2.293-4.822,1.163-5.5h2.9c-1.686,1.163-2.8,3.726-3.743,6.036" transform="translate(-131.029 -113.513)" fill="#0b0e10"/>
      <path id="Path_40" data-name="Path 40" d="M218.513,144.64h-5.26c.354,1.939,1.838,3.793,4.872,2.883-2.934,4.114-8.413,1.45-7.671-2.984a4.332,4.332,0,0,1,4.114-3.911,3.576,3.576,0,0,1,3.945,4.012m-3.979-3.422c-.995.084-1.517,1.568-1.332,3.1,3.945-.169,2.209-3.186,1.332-3.1" transform="translate(-169.279 -113.147)" fill="#0b0e10"/>
      <path id="Path_41" data-name="Path 41" d="M258.217,141.387c0,.927,1.989,1.737,2.681,2.04,3.321,1.382,2.647,5.732-1.838,5.429l-2.9-.169-.236-2.546c2.242,2.7,4.6,2.428,4.6.961,0-1.736-5.294-1.9-4.855-4.94.421-3.119,4.417-2.242,6.457-2.242V142.5a8.663,8.663,0,0,0-1.72-1.7c-.944-.624-2.192-.455-2.192.59" transform="translate(-205.696 -112.49)" fill="#0b0e10"/>
      <path id="Path_42" data-name="Path 42" d="M1.18,197.642.647,198.65v.685H.538v-.685L0,197.642H.123l.468.907.465-.907Z" transform="translate(0 -159.026)" fill="#0b0e10"/>
      <path id="Path_43" data-name="Path 43" d="M16.558,199.185a.768.768,0,0,1-.294-.308.994.994,0,0,1,0-.894.771.771,0,0,1,.294-.306.866.866,0,0,1,.844,0,.773.773,0,0,1,.294.306.994.994,0,0,1,0,.894.77.77,0,0,1-.294.308.867.867,0,0,1-.844,0m.784-.081a.667.667,0,0,0,.254-.268.934.934,0,0,0,0-.813.664.664,0,0,0-.254-.268.742.742,0,0,0-.724,0,.671.671,0,0,0-.256.268.926.926,0,0,0,0,.813.674.674,0,0,0,.256.268.743.743,0,0,0,.724,0" transform="translate(-13.001 -158.966)" fill="#0b0e10"/>
      <path id="Path_44" data-name="Path 44" d="M35.45,197.642V198.7a.585.585,0,0,0,.13.421.472.472,0,0,0,.354.134.463.463,0,0,0,.35-.132.592.592,0,0,0,.128-.422v-1.059h.109V198.7a.676.676,0,0,1-.159.492.573.573,0,0,1-.427.162.582.582,0,0,1-.43-.163.667.667,0,0,1-.163-.491v-1.056Z" transform="translate(-28.436 -159.025)" fill="#0b0e10"/>
      <path id="Path_45" data-name="Path 45" d="M53.4,199.336l-.434-.721h-.371v.721h-.109v-1.693h.466a.6.6,0,0,1,.423.133.46.46,0,0,1,.141.352.474.474,0,0,1-.11.322.5.5,0,0,1-.32.156l.444.731Zm-.806-.813h.362a.462.462,0,0,0,.335-.109.383.383,0,0,0,.111-.287q0-.388-.451-.388h-.357Z" transform="translate(-42.231 -159.026)" fill="#0b0e10"/>
      <path id="Path_46" data-name="Path 46" d="M81.085,199.225a.47.47,0,0,1-.192-.157.437.437,0,0,1-.079-.219h.114a.41.41,0,0,0,.124.236.438.438,0,0,0,.32.1.488.488,0,0,0,.218-.046.35.35,0,0,0,.143-.125.323.323,0,0,0,.05-.176.3.3,0,0,0-.059-.2.367.367,0,0,0-.147-.109,2.124,2.124,0,0,0-.237-.077,1.87,1.87,0,0,1-.264-.087.415.415,0,0,1-.169-.134.4.4,0,0,1-.069-.247.4.4,0,0,1,.064-.221.438.438,0,0,1,.182-.158.61.61,0,0,1,.272-.058.559.559,0,0,1,.362.111.434.434,0,0,1,.164.273h-.116a.356.356,0,0,0-.063-.133.377.377,0,0,0-.14-.112.483.483,0,0,0-.216-.045.439.439,0,0,0-.284.093.333.333,0,0,0-.056.444.379.379,0,0,0,.148.111,1.693,1.693,0,0,0,.237.076,2.15,2.15,0,0,1,.264.088.415.415,0,0,1,.166.133.4.4,0,0,1,.069.245.411.411,0,0,1-.06.215.452.452,0,0,1-.177.165.582.582,0,0,1-.284.064.664.664,0,0,1-.287-.058" transform="translate(-65.025 -158.956)" fill="#0b0e10"/>
      <path id="Path_47" data-name="Path 47" d="M98.341,197.642v1.693h-.109v-.82h-.989v.82h-.109v-1.693h.109v.781h.989v-.781Z" transform="translate(-78.156 -159.026)" fill="#0b0e10"/>
      <path id="Path_48" data-name="Path 48" d="M114.533,199.185a.77.77,0,0,1-.294-.308,1,1,0,0,1,0-.894.773.773,0,0,1,.294-.306.866.866,0,0,1,.844,0,.77.77,0,0,1,.294.306.992.992,0,0,1,0,.894.767.767,0,0,1-.294.308.867.867,0,0,1-.844,0m.784-.081a.667.667,0,0,0,.254-.268.936.936,0,0,0,0-.813.664.664,0,0,0-.254-.268.742.742,0,0,0-.724,0,.673.673,0,0,0-.256.268.926.926,0,0,0,0,.813.677.677,0,0,0,.256.268.743.743,0,0,0,.724,0" transform="translate(-91.833 -158.966)" fill="#0b0e10"/>
      <path id="Path_49" data-name="Path 49" d="M134.25,198.468a.607.607,0,0,1-.415.124h-.362v.743h-.108v-1.693h.47a.591.591,0,0,1,.417.129.456.456,0,0,1,.138.349.442.442,0,0,1-.14.348m.031-.348a.366.366,0,0,0-.106-.284.493.493,0,0,0-.34-.1h-.362v.758h.362q.446,0,.446-.376" transform="translate(-107.307 -159.025)" fill="#0b0e10"/>
      <path id="Path_50" data-name="Path 50" d="M150.124,198.468a.607.607,0,0,1-.415.124h-.362v.743h-.108v-1.693h.47a.591.591,0,0,1,.417.129.456.456,0,0,1,.138.349.442.442,0,0,1-.14.348m.031-.348a.366.366,0,0,0-.106-.284.493.493,0,0,0-.34-.1h-.362v.758h.362q.446,0,.446-.376" transform="translate(-120.08 -159.025)" fill="#0b0e10"/>
      <rect id="Rectangle_21" data-name="Rectangle 21" width="0.109" height="1.693" transform="translate(32.261 38.617)" fill="#0b0e10"/>
      <path id="Path_51" data-name="Path 51" d="M178.05,199.345h-.109l-.994-1.515v1.515h-.108v-1.691h.108l.994,1.51v-1.51h.109Z" transform="translate(-142.288 -159.035)" fill="#0b0e10"/>
      <path id="Path_52" data-name="Path 52" d="M195.321,198.082a.627.627,0,0,0-.24-.3.69.69,0,0,0-.4-.113.7.7,0,0,0-.362.094.671.671,0,0,0-.256.268.921.921,0,0,0,0,.81.666.666,0,0,0,.256.266.75.75,0,0,0,.711.006.653.653,0,0,0,.251-.247.8.8,0,0,0,.1-.375h-.755V198.4h.866v.072a.908.908,0,0,1-.113.424.773.773,0,0,1-.29.294.808.808,0,0,1-.412.106.824.824,0,0,1-.422-.11.773.773,0,0,1-.294-.307.991.991,0,0,1,0-.892.771.771,0,0,1,.294-.306.824.824,0,0,1,.422-.11.815.815,0,0,1,.471.136.781.781,0,0,1,.291.377Z" transform="translate(-155.984 -158.966)" fill="#0b0e10"/>
      <path id="Path_53" data-name="Path 53" d="M226.785,198.082a.627.627,0,0,0-.24-.3.69.69,0,0,0-.4-.113.7.7,0,0,0-.362.094.67.67,0,0,0-.256.268.921.921,0,0,0,0,.81.666.666,0,0,0,.256.266.75.75,0,0,0,.711.006.653.653,0,0,0,.251-.247.8.8,0,0,0,.1-.375H226.1V198.4h.866v.072a.907.907,0,0,1-.113.424.773.773,0,0,1-.29.294.808.808,0,0,1-.412.106.824.824,0,0,1-.422-.11.773.773,0,0,1-.294-.307.991.991,0,0,1,0-.892.771.771,0,0,1,.294-.306.824.824,0,0,1,.422-.11.815.815,0,0,1,.471.136.781.781,0,0,1,.291.377Z" transform="translate(-181.3 -158.966)" fill="#0b0e10"/>
      <path id="Path_54" data-name="Path 54" d="M244.63,197.734v.707h.675v.092h-.675v.711h.748v.092h-.856v-1.693h.856v.092Z" transform="translate(-196.745 -159.026)" fill="#0b0e10"/>
      <path id="Path_55" data-name="Path 55" d="M260.928,199.345h-.109l-.994-1.515v1.515h-.108v-1.691h.108l.994,1.51v-1.51h.109Z" transform="translate(-208.972 -159.035)" fill="#0b0e10"/>
      <rect id="Rectangle_22" data-name="Rectangle 22" width="0.109" height="1.693" transform="translate(54.139 38.617)" fill="#0b0e10"/>
      <path id="Path_56" data-name="Path 56" d="M288.919,197.734v.707h.675v.092h-.675v.711h.748v.092h-.856v-1.693h.856v.092Z" transform="translate(-232.381 -159.026)" fill="#0b0e10"/>
    </g>
  </g>
</svg>
