<svg id="Group_66" data-name="Group 66" xmlns="http://www.w3.org/2000/svg" xmlns:xlink="http://www.w3.org/1999/xlink" width="137.209" height="96.594" viewBox="0 0 137.209 96.594">
  <defs>
    <clipPath id="clip-path">
      <path id="Path_28" data-name="Path 28" d="M184.338,63.164a4.058,4.058,0,1,0,4.078-4.078,4.059,4.059,0,0,0-4.078,4.078" transform="translate(-184.338 -59.086)" fill="none"/>
    </clipPath>
    <linearGradient id="linear-gradient" x1="-10.629" y1="8.494" x2="-10.571" y2="8.494" gradientUnits="objectBoundingBox">
      <stop offset="0" stop-color="#007cc3"/>
      <stop offset="1" stop-color="#0090d3"/>
    </linearGradient>
    <clipPath id="clip-path-2">
      <path id="Path_29" data-name="Path 29" d="M32.575,74.615c2.678,0,6.066.26,7.765,2.649,1.679,2.36,1.059,5.643-.1,8.085a14.424,14.424,0,0,1-6.065,6.132c-2.055,1.188-4.25,2.122-6.282,3.349-7.516,4.539-11.517,13.664-8.382,22.148a14.388,14.388,0,0,0,5.542,7.1c4.693,3.038,12.964,3.542,16.669-1.356a10.423,10.423,0,0,0,.5-11.147c-.681-1.072-1.676-2.019-1.988-1.846-.526.291,1.694,3.309.852,6.32-.953,3.406-5.408,5.488-8.5,3.582a7.061,7.061,0,0,1-2.742-3.448,11.907,11.907,0,0,1,.48-9.094,23.971,23.971,0,0,1,5.593-7.419c3.406-3.256,7.655-5.981,9.745-10.353a12.268,12.268,0,0,0,1.175-6.5,10.589,10.589,0,0,0-2.651-6.024,9.9,9.9,0,0,0-5.441-3.025,9.691,9.691,0,0,0-1.786-.165,9.9,9.9,0,0,0-4.38,1.019" transform="translate(-18.438 -73.596)" fill="none"/>
    </clipPath>
    <linearGradient id="linear-gradient-2" x1="-0.214" y1="1.15" x2="-0.199" y2="1.15" xlink:href="#linear-gradient"/>
    <clipPath id="clip-path-3">
      <path id="Path_30" data-name="Path 30" d="M5.347,68.07A12.052,12.052,0,0,0,0,77.714v.094a9.474,9.474,0,0,0,.434,2.815c1.947,6.18,9.222,8.973,15.212,7.9A13.621,13.621,0,0,0,23.994,83.3c1.645-2.189,3.01-5.314,1.737-7.987-1.818-3.816-6.712-3.878-9.36-.965a4.223,4.223,0,0,1,1.521-.616,5.616,5.616,0,0,1,3.219-.21,3.23,3.23,0,0,1,2.317,3.034c-.123,1.942-1.75,3.647-3.173,4.8a13.447,13.447,0,0,1-4.076,2.343c-3.188,1.082-7.629.213-7.791-3.875a6.649,6.649,0,0,1,1.6-4.194c.932-1.21,2.078-2.237,3.059-3.408,1.114-1.331,2.707-3.657,1.381-5.34l-.026-.032a2.514,2.514,0,0,0-1.468-.8,6.831,6.831,0,0,0-1.323-.125A11.854,11.854,0,0,0,5.347,68.07" transform="translate(0 -65.918)" fill="none"/>
    </clipPath>
    <linearGradient id="linear-gradient-3" x1="0" y1="2.776" x2="0.017" y2="2.776" xlink:href="#linear-gradient"/>
    <clipPath id="clip-path-4">
      <path id="Path_31" data-name="Path 31" d="M24.894,40.871c-7.813-8.8-.706-14.494,4.608-17.422-.794-.4-1.51-.736-2.078-1a5.941,5.941,0,0,1-3.206-3.677,5.543,5.543,0,0,1-.2-1.023c-15.3,12.182.88,23.122.88,23.122" transform="translate(-17.434 -17.749)" fill="none"/>
    </clipPath>
    <linearGradient id="linear-gradient-4" x1="0.027" y1="3.818" x2="0.05" y2="3.818" xlink:href="#linear-gradient"/>
    <clipPath id="clip-path-5">
      <path id="Path_32" data-name="Path 32" d="M33.093,9.136a5.262,5.262,0,0,0,2.841,3.253c4.366,2.03,17.512,8.155,7.852,19.039,0,0,19.319-13.061-4.218-26.53,0,0-1.9-1.089,1.089-4.9,0,0-9.241,3.491-7.564,9.135" transform="translate(-32.889 -0.001)" fill="none"/>
    </clipPath>
    <linearGradient id="linear-gradient-5" x1="-0.439" y1="3.073" x2="-0.424" y2="3.073" xlink:href="#linear-gradient"/>
    <clipPath id="clip-path-6">
      <rect id="Rectangle_23" data-name="Rectangle 23" width="137.209" height="96.594" fill="none"/>
    </clipPath>
  </defs>
  <g id="Group_67" data-name="Group 67" transform="translate(86.267 27.651)">
    <g id="Group_66-2" data-name="Group 66" clip-path="url(#clip-path)">
      <rect id="Rectangle_16" data-name="Rectangle 16" width="8.116" height="8.116" transform="translate(0)" fill="url(#linear-gradient)"/>
    </g>
  </g>
  <g id="Group_69" data-name="Group 69" transform="translate(8.628 34.441)">
    <g id="Group_68" data-name="Group 68" clip-path="url(#clip-path-2)">
      <rect id="Rectangle_17" data-name="Rectangle 17" width="30.685" height="54.024" transform="translate(-2.06 0)" fill="url(#linear-gradient-2)"/>
    </g>
  </g>
  <g id="Group_71" data-name="Group 71" transform="translate(0 30.848)">
    <g id="Group_70" data-name="Group 70" clip-path="url(#clip-path-3)">
      <rect id="Rectangle_18" data-name="Rectangle 18" width="27.004" height="23.678" transform="translate(0 0)" fill="url(#linear-gradient-3)"/>
    </g>
  </g>
  <g id="Group_73" data-name="Group 73" transform="translate(8.159 8.306)">
    <g id="Group_72" data-name="Group 72" clip-path="url(#clip-path-4)">
      <rect id="Rectangle_19" data-name="Rectangle 19" width="20.791" height="23.122" transform="translate(-8.723 0)" fill="url(#linear-gradient-4)"/>
    </g>
  </g>
  <g id="Group_75" data-name="Group 75" transform="translate(15.391 0)">
    <g id="Group_74" data-name="Group 74" clip-path="url(#clip-path-5)">
      <rect id="Rectangle_20" data-name="Rectangle 20" width="31.69" height="31.428" transform="translate(-1.474 0)" fill="url(#linear-gradient-5)"/>
    </g>
  </g>
  <g id="Group_77" data-name="Group 77">
    <g id="Group_76" data-name="Group 76" clip-path="url(#clip-path-6)">
      <path id="Path_33" data-name="Path 33" d="M104.695,89.738H92.1c.848,4.644,4.4,9.086,11.67,6.905-7.026,9.853-20.15,3.473-18.373-7.147,1.05-6.3,5.532-9.207,9.853-9.368,6.7-.283,10.014,4.886,9.449,9.61m-9.53-8.2c-2.382.2-3.634,3.756-3.19,7.43,9.449-.4,5.29-7.632,3.19-7.43" transform="translate(-45.344 -42.623)" fill="#0b0e10"/>
      <path id="Path_34" data-name="Path 34" d="M143.421,100.66c1.212-3.8.969-10.418.969-14.86a2.87,2.87,0,0,0-2.827-2.867,5.057,5.057,0,0,0-3.836,1.817c-.445,5.855-.889,13.487,1.251,15.91H129.49c1.7-5.249,1.938-16.031-.767-18.858l9.368-1.9c-.04.888-.121,2.059-.242,3.351a9.711,9.711,0,0,1,7.834-3.634,5.713,5.713,0,0,1,5.693,5.693c0,3.836-.242,13.326,1.494,15.345Z" transform="translate(-68.483 -42.36)" fill="#0b0e10"/>
      <path id="Path_35" data-name="Path 35" d="M184.541,100.981c1.7-5.249,1.938-16.031-.767-18.858l9.408-1.9c-.283,5.209-1.938,17.565.848,20.755Z" transform="translate(-97.771 -42.682)" fill="#0b0e10"/>
      <path id="Path_36" data-name="Path 36" d="M228.6,89.738H216c.848,4.644,4.4,9.086,11.67,6.905-7.026,9.853-20.15,3.473-18.373-7.147,1.05-6.3,5.532-9.207,9.853-9.368,6.7-.283,10.014,4.886,9.449,9.61m-9.53-8.2c-2.382.2-3.634,3.756-3.19,7.43,9.449-.4,5.29-7.632,3.19-7.43" transform="translate(-111.265 -42.623)" fill="#0b0e10"/>
      <path id="Path_37" data-name="Path 37" d="M91.388,143.592c0,2.221,4.765,4.159,6.421,4.886,7.955,3.311,6.34,13.729-4.4,13l-6.945-.4-.565-6.1c5.371,6.461,11.024,5.815,11.024,2.3,0-4.159-12.679-4.563-11.629-11.831,1.009-7.47,10.58-5.371,15.466-5.371v6.178a20.75,20.75,0,0,0-4.119-4.078c-2.261-1.494-5.249-1.09-5.249,1.413" transform="translate(-45.343 -74.38)" fill="#0b0e10"/>
      <path id="Path_38" data-name="Path 38" d="M136.114,161.489a5.235,5.235,0,0,0,1.009-2.181c-3.837,3.352-10.862,3.15-10.862-2.5,0-5.855,10.9-8.8,10.9-8.8-.121-2.544,0-5.492-2.261-5.452-3.271.041-2.181,5.734-2.181,5.734s-1.776-1.413-5.411-1.252a7.735,7.735,0,0,1,7.914-6.3c6.905,0,8.359,4.4,8.359,10.459-.041,4.442.606,8.884,1.817,10.3Zm1.332-12.074a8.236,8.236,0,0,0-4,5.613c-.606,3.392,5.168,5.693,4-5.613" transform="translate(-67.173 -74.873)" fill="#0b0e10"/>
      <path id="Path_39" data-name="Path 39" d="M177.949,155.534c0,.04.04.081.04.121l-2.019,4.6c0,.04-.04.08-.04.121l-.606,1.293h-3.109c-2.624-6.461-5.653-15.91-9.368-20.594h11.912c-2.665,2.867-.283,8.2,2.423,13.164,2.463-4.684,5.492-11.549,2.786-13.164h6.946c-4.038,2.786-6.7,8.924-8.965,14.456" transform="translate(-86.638 -75.056)" fill="#0b0e10"/>
      <path id="Path_40" data-name="Path 40" d="M229.852,150.245h-12.6c.848,4.644,4.4,9.086,11.67,6.905C221.9,167,208.773,160.623,210.55,150c1.05-6.3,5.532-9.207,9.853-9.368,6.7-.283,10.014,4.886,9.449,9.61m-9.53-8.2c-2.382.2-3.634,3.756-3.19,7.43,9.449-.4,5.29-7.632,3.19-7.43" transform="translate(-111.93 -74.814)" fill="#0b0e10"/>
      <path id="Path_41" data-name="Path 41" d="M261.805,143.592c0,2.221,4.765,4.159,6.421,4.886,7.955,3.311,6.34,13.729-4.4,13l-6.945-.4-.565-6.1c5.371,6.461,11.024,5.815,11.024,2.3,0-4.159-12.679-4.563-11.629-11.831,1.009-7.47,10.58-5.371,15.466-5.371v6.178a20.75,20.75,0,0,0-4.119-4.078c-2.261-1.494-5.249-1.09-5.249,1.413" transform="translate(-136.009 -74.38)" fill="#0b0e10"/>
      <path id="Path_42" data-name="Path 42" d="M2.825,197.642l-1.277,2.414V201.7h-.26v-1.641L0,197.642H.295l1.121,2.172,1.115-2.172Z" transform="translate(0 -105.15)" fill="#0b0e10"/>
      <path id="Path_43" data-name="Path 43" d="M17.117,201.441a1.84,1.84,0,0,1-.7-.737,2.38,2.38,0,0,1,0-2.14,1.847,1.847,0,0,1,.7-.734,2.074,2.074,0,0,1,2.022,0,1.852,1.852,0,0,1,.705.734,2.38,2.38,0,0,1,0,2.14,1.844,1.844,0,0,1-.705.737,2.077,2.077,0,0,1-2.022,0m1.878-.193a1.6,1.6,0,0,0,.609-.641,2.238,2.238,0,0,0,0-1.947,1.589,1.589,0,0,0-.609-.641,1.777,1.777,0,0,0-1.733,0,1.606,1.606,0,0,0-.613.641,2.217,2.217,0,0,0,0,1.947,1.615,1.615,0,0,0,.613.641,1.78,1.78,0,0,0,1.733,0" transform="translate(-8.596 -105.11)" fill="#0b0e10"/>
      <path id="Path_44" data-name="Path 44" d="M35.6,197.642v2.536a1.4,1.4,0,0,0,.312,1.008,1.13,1.13,0,0,0,.849.32,1.11,1.11,0,0,0,.838-.317,1.418,1.418,0,0,0,.306-1.011v-2.536h.26v2.53a1.619,1.619,0,0,1-.381,1.178,1.371,1.371,0,0,1-1.023.387,1.394,1.394,0,0,1-1.031-.39,1.6,1.6,0,0,1-.39-1.176v-2.53Z" transform="translate(-18.802 -105.149)" fill="#0b0e10"/>
      <path id="Path_45" data-name="Path 45" d="M54.676,201.7l-1.04-1.727h-.89V201.7h-.26v-4.055H53.6a1.43,1.43,0,0,1,1.014.318,1.1,1.1,0,0,1,.338.843,1.135,1.135,0,0,1-.263.771,1.188,1.188,0,0,1-.766.373l1.063,1.75Zm-1.929-1.947h.867a1.106,1.106,0,0,0,.8-.26.918.918,0,0,0,.265-.687q0-.93-1.08-.93h-.855Z" transform="translate(-27.924 -105.15)" fill="#0b0e10"/>
      <path id="Path_46" data-name="Path 46" d="M81.463,201.553a1.126,1.126,0,0,1-.46-.376,1.047,1.047,0,0,1-.188-.526h.272a.983.983,0,0,0,.3.566,1.049,1.049,0,0,0,.766.249,1.168,1.168,0,0,0,.523-.11.839.839,0,0,0,.343-.3.774.774,0,0,0,.121-.422.719.719,0,0,0-.141-.468.879.879,0,0,0-.352-.26,5.084,5.084,0,0,0-.569-.185,4.485,4.485,0,0,1-.633-.208,1,1,0,0,1-.4-.321.956.956,0,0,1-.164-.592.967.967,0,0,1,.153-.528,1.05,1.05,0,0,1,.437-.378,1.46,1.46,0,0,1,.652-.139,1.338,1.338,0,0,1,.867.266,1.04,1.04,0,0,1,.393.653H83.1a.852.852,0,0,0-.152-.318.9.9,0,0,0-.336-.269,1.158,1.158,0,0,0-.517-.107,1.052,1.052,0,0,0-.681.223.8.8,0,0,0-.133,1.063.908.908,0,0,0,.356.265,4.056,4.056,0,0,0,.569.182,5.154,5.154,0,0,1,.633.211.993.993,0,0,1,.4.318.946.946,0,0,1,.164.586.985.985,0,0,1-.145.514,1.082,1.082,0,0,1-.424.4,1.4,1.4,0,0,1-.679.153,1.592,1.592,0,0,1-.687-.139" transform="translate(-42.995 -105.104)" fill="#0b0e10"/>
      <path id="Path_47" data-name="Path 47" d="M100.023,197.642V201.7h-.26v-1.964H97.395V201.7h-.26v-4.055h.26v1.871h2.368v-1.871Z" transform="translate(-51.677 -105.15)" fill="#0b0e10"/>
      <path id="Path_48" data-name="Path 48" d="M115.091,201.441a1.843,1.843,0,0,1-.7-.737,2.384,2.384,0,0,1,0-2.14,1.851,1.851,0,0,1,.7-.734,2.074,2.074,0,0,1,2.022,0,1.844,1.844,0,0,1,.7.734,2.376,2.376,0,0,1,0,2.14,1.836,1.836,0,0,1-.7.737,2.077,2.077,0,0,1-2.022,0m1.878-.193a1.6,1.6,0,0,0,.609-.641,2.242,2.242,0,0,0,0-1.947,1.589,1.589,0,0,0-.609-.641,1.777,1.777,0,0,0-1.733,0,1.612,1.612,0,0,0-.613.641,2.217,2.217,0,0,0,0,1.947,1.621,1.621,0,0,0,.613.641,1.78,1.78,0,0,0,1.733,0" transform="translate(-60.721 -105.11)" fill="#0b0e10"/>
      <path id="Path_49" data-name="Path 49" d="M135.484,199.62a1.453,1.453,0,0,1-.993.3h-.867V201.7h-.26v-4.055h1.126a1.416,1.416,0,0,1,1,.309,1.092,1.092,0,0,1,.329.835,1.058,1.058,0,0,1-.336.834m.075-.834a.878.878,0,0,0-.254-.679,1.18,1.18,0,0,0-.814-.234h-.867v1.814h.867q1.068,0,1.068-.9" transform="translate(-70.953 -105.149)" fill="#0b0e10"/>
      <path id="Path_50" data-name="Path 50" d="M151.358,199.62a1.453,1.453,0,0,1-.993.3H149.5V201.7h-.26v-4.055h1.126a1.416,1.416,0,0,1,1,.309,1.092,1.092,0,0,1,.329.835,1.058,1.058,0,0,1-.336.834m.075-.834a.878.878,0,0,0-.254-.679,1.18,1.18,0,0,0-.814-.234H149.5v1.814h.867q1.068,0,1.068-.9" transform="translate(-79.398 -105.149)" fill="#0b0e10"/>
      <rect id="Rectangle_21" data-name="Rectangle 21" width="0.26" height="4.055" transform="translate(77.269 92.493)" fill="#0b0e10"/>
      <path id="Path_51" data-name="Path 51" d="M179.74,201.7h-.26l-2.38-3.628V201.7h-.26v-4.049h.26l2.38,3.616v-3.616h.26Z" transform="translate(-94.082 -105.156)" fill="#0b0e10"/>
      <path id="Path_52" data-name="Path 52" d="M197.357,198.8a1.5,1.5,0,0,0-.575-.728,1.653,1.653,0,0,0-.95-.271,1.683,1.683,0,0,0-.866.226,1.606,1.606,0,0,0-.613.641,2.205,2.205,0,0,0,0,1.941,1.594,1.594,0,0,0,.613.638,1.8,1.8,0,0,0,1.7.015,1.565,1.565,0,0,0,.6-.592,1.918,1.918,0,0,0,.249-.9h-1.808v-.219h2.074v.174a2.174,2.174,0,0,1-.271,1.016,1.851,1.851,0,0,1-.694.7,1.937,1.937,0,0,1-.988.254,1.973,1.973,0,0,1-1.011-.263,1.851,1.851,0,0,1-.7-.734,2.373,2.373,0,0,1,0-2.137,1.846,1.846,0,0,1,.7-.734,2.1,2.1,0,0,1,2.141.063,1.871,1.871,0,0,1,.7.9Z" transform="translate(-103.138 -105.11)" fill="#0b0e10"/>
      <path id="Path_53" data-name="Path 53" d="M228.821,198.8a1.5,1.5,0,0,0-.575-.728,1.653,1.653,0,0,0-.95-.271,1.683,1.683,0,0,0-.866.226,1.606,1.606,0,0,0-.613.641,2.205,2.205,0,0,0,0,1.941,1.594,1.594,0,0,0,.613.638,1.8,1.8,0,0,0,1.7.015,1.565,1.565,0,0,0,.6-.592,1.918,1.918,0,0,0,.249-.9h-1.808v-.219h2.074v.174a2.174,2.174,0,0,1-.271,1.016,1.851,1.851,0,0,1-.694.7,1.936,1.936,0,0,1-.988.254,1.973,1.973,0,0,1-1.011-.263,1.851,1.851,0,0,1-.7-.734,2.373,2.373,0,0,1,0-2.137,1.846,1.846,0,0,1,.7-.734,2.1,2.1,0,0,1,2.141.063,1.872,1.872,0,0,1,.7.9Z" transform="translate(-119.878 -105.11)" fill="#0b0e10"/>
      <path id="Path_54" data-name="Path 54" d="M244.781,197.862v1.692H246.4v.22h-1.617v1.7h1.79v.219h-2.051v-4.055h2.051v.219Z" transform="translate(-130.09 -105.15)" fill="#0b0e10"/>
      <path id="Path_55" data-name="Path 55" d="M262.617,201.7h-.26l-2.38-3.628V201.7h-.26v-4.049h.26l2.38,3.616v-3.616h.26Z" transform="translate(-138.175 -105.156)" fill="#0b0e10"/>
      <rect id="Rectangle_22" data-name="Rectangle 22" width="0.26" height="4.055" transform="translate(129.67 92.493)" fill="#0b0e10"/>
      <path id="Path_56" data-name="Path 56" d="M289.071,197.862v1.692h1.617v.22h-1.617v1.7h1.79v.219h-2.051v-4.055h2.051v.219Z" transform="translate(-153.653 -105.15)" fill="#0b0e10"/>
    </g>
  </g>
</svg>
