<svg xmlns="http://www.w3.org/2000/svg" width="20" height="32" viewBox="0 0 20 32">
  <path id="Path_15" data-name="Path 15" d="M14.5,2a.667.667,0,1,0,.667.667A.667.667,0,0,0,14.5,2Zm6.667-2H7.833A3.333,3.333,0,0,0,4.5,3.333V28.667A3.333,3.333,0,0,0,7.833,32H21.167A3.333,3.333,0,0,0,24.5,28.667V3.333A3.333,3.333,0,0,0,21.167,0Zm2,28.667a2,2,0,0,1-2,2H7.833a2,2,0,0,1-2-2V24H23.167Zm0-6H5.833V5.333H23.167ZM23.167,4H5.833V3.333a2,2,0,0,1,2-2H21.167a2,2,0,0,1,2,2ZM14.5,29.333a2,2,0,1,0-2-2A2,2,0,0,0,14.5,29.333Zm0-2.667a.667.667,0,1,1-.667.667A.667.667,0,0,1,14.5,26.667Z" transform="translate(-4.5)"/>
</svg>
